<svg width="28" height="28" viewBox="0 0 28 28" fill="none" xmlns="http://www.w3.org/2000/svg">
<g clip-path="url(#clip0_234_37)">
<path d="M14 14C17.866 14 21 10.866 21 7C21 3.13401 17.866 0 14 0C10.134 0 7 3.13401 7 7C7 10.866 10.134 14 14 14ZM18.6667 7C18.6667 9.57733 16.5773 11.6667 14 11.6667C11.4227 11.6667 9.33333 9.57733 9.33333 7C9.33333 4.42267 11.4227 2.33333 14 2.33333C16.5773 2.33333 18.6667 4.42267 18.6667 7Z" fill="black"/>
<path d="M28 25.6667C28 28 25.6667 28 25.6667 28H2.33333C2.33333 28 0 28 0 25.6667C0 23.3333 2.33333 16.3333 14 16.3333C25.6667 16.3333 28 23.3333 28 25.6667ZM25.6666 25.6585C25.6633 25.0827 25.3079 23.3577 23.7251 21.7749C22.2031 20.253 19.3412 18.6667 14 18.6667C8.65872 18.6667 5.79682 20.253 4.27489 21.7749C2.69209 23.3577 2.33666 25.0827 2.33333 25.6585H25.6666Z" fill="black"/>
</g>
<defs>
<clipPath id="clip0_234_37">
<rect width="28" height="28" fill="white"/>
</clipPath>
</defs>
</svg>
