<svg width="39" height="39" viewBox="0 0 39 39" fill="none" xmlns="http://www.w3.org/2000/svg">
<g clip-path="url(#clip0_265_52)">
<path d="M39 19.5C39 30.2696 30.2696 39 19.5 39C8.73045 39 0 30.2696 0 19.5C0 8.73045 8.73045 0 19.5 0C30.2696 0 39 8.73045 39 19.5Z" fill="white"/>
<path fill-rule="evenodd" clip-rule="evenodd" d="M20 19.3125C20.3797 19.3125 20.6875 19.6203 20.6875 20V22.0625H22.75C23.1297 22.0625 23.4375 22.3703 23.4375 22.75C23.4375 23.1297 23.1297 23.4375 22.75 23.4375H20.6875V25.5C20.6875 25.8797 20.3797 26.1875 20 26.1875C19.6203 26.1875 19.3125 25.8797 19.3125 25.5V23.4375H17.25C16.8703 23.4375 16.5625 23.1297 16.5625 22.75C16.5625 22.3703 16.8703 22.0625 17.25 22.0625H19.3125V20C19.3125 19.6203 19.6203 19.3125 20 19.3125Z" fill="black"/>
<path d="M20 10.375C21.8985 10.375 23.4375 11.914 23.4375 13.8125V14.5H16.5625V13.8125C16.5625 11.914 18.1015 10.375 20 10.375ZM24.8125 14.5V13.8125C24.8125 11.1546 22.6579 9 20 9C17.3421 9 15.1875 11.1546 15.1875 13.8125V14.5H10.375V28.25C10.375 29.7688 11.6062 31 13.125 31H26.875C28.3938 31 29.625 29.7688 29.625 28.25V14.5H24.8125ZM11.75 15.875H28.25V28.25C28.25 29.0094 27.6344 29.625 26.875 29.625H13.125C12.3656 29.625 11.75 29.0094 11.75 28.25V15.875Z" fill="black"/>
</g>
<defs>
<clipPath id="clip0_265_52">
<rect width="39" height="39" fill="white"/>
</clipPath>
</defs>
</svg>
