<svg width="30" height="31" viewBox="0 0 30 31" fill="none" xmlns="http://www.w3.org/2000/svg">
<path d="M11.0752 3.87483C11.4896 4.12346 11.6239 4.66093 11.3753 5.07532L6.92042 12.5001H23.0796L18.6247 5.07532C18.3761 4.66093 18.5104 4.12346 18.9248 3.87483C19.3392 3.6262 19.8767 3.76057 20.1253 4.17495L25.1204 12.5001H27.25C28.2165 12.5001 29 13.2836 29 14.2501V16.0001C29 16.9666 28.2165 17.7501 27.25 17.7501V25.6256C27.25 28.0419 25.2911 30.0001 22.875 30.0001H7.125C4.70889 30.0001 2.75 28.0419 2.75 25.6256V17.7501C1.7835 17.7501 1 16.9666 1 16.0001V14.2501C1 13.2836 1.7835 12.5001 2.75 12.5001H4.87958L9.87469 4.17495C10.1233 3.76057 10.6608 3.6262 11.0752 3.87483ZM4.5 17.7501V25.6256C4.5 27.0752 5.67512 28.2501 7.125 28.2501H22.875C24.3249 28.2501 25.5 27.0752 25.5 25.6256V17.7501H4.5ZM2.75 14.2501V16.0001H27.25V14.2501H2.75ZM8 19.5001C8.48325 19.5001 8.875 19.8919 8.875 20.3751V25.6251C8.875 26.1084 8.48325 26.5001 8 26.5001C7.51675 26.5001 7.125 26.1084 7.125 25.6251V20.3751C7.125 19.8919 7.51675 19.5001 8 19.5001ZM11.5 19.5001C11.9832 19.5001 12.375 19.8919 12.375 20.3751V25.6251C12.375 26.1084 11.9832 26.5001 11.5 26.5001C11.0168 26.5001 10.625 26.1084 10.625 25.6251V20.3751C10.625 19.8919 11.0168 19.5001 11.5 19.5001ZM15 19.5001C15.4832 19.5001 15.875 19.8919 15.875 20.3751V25.6251C15.875 26.1084 15.4832 26.5001 15 26.5001C14.5168 26.5001 14.125 26.1084 14.125 25.6251V20.3751C14.125 19.8919 14.5168 19.5001 15 19.5001ZM18.5 19.5001C18.9832 19.5001 19.375 19.8919 19.375 20.3751V25.6251C19.375 26.1084 18.9832 26.5001 18.5 26.5001C18.0168 26.5001 17.625 26.1084 17.625 25.6251V20.3751C17.625 19.8919 18.0168 19.5001 18.5 19.5001ZM22 19.5001C22.4832 19.5001 22.875 19.8919 22.875 20.3751V25.6251C22.875 26.1084 22.4832 26.5001 22 26.5001C21.5168 26.5001 21.125 26.1084 21.125 25.6251V20.3751C21.125 19.8919 21.5168 19.5001 22 19.5001Z" fill="black"/>
</svg>
