<svg width="187" height="45" viewBox="0 0 187 45" fill="none" xmlns="http://www.w3.org/2000/svg">
<g clip-path="url(#clip0_229_30)">
<path d="M19.0455 19C18.858 18.4261 18.6108 17.9119 18.304 17.4574C18.0028 16.9972 17.642 16.6051 17.2216 16.2812C16.8068 15.9574 16.3352 15.7102 15.8068 15.5398C15.2784 15.3693 14.6989 15.2841 14.0682 15.2841C13.0341 15.2841 12.0938 15.5511 11.2472 16.0852C10.4006 16.6193 9.72727 17.4062 9.22727 18.446C8.72727 19.4858 8.47727 20.7614 8.47727 22.2727C8.47727 23.7841 8.73011 25.0597 9.2358 26.0994C9.74148 27.1392 10.4261 27.9261 11.2898 28.4602C12.1534 28.9943 13.125 29.2614 14.2045 29.2614C15.2045 29.2614 16.0852 29.0483 16.8466 28.6222C17.6136 28.1903 18.2102 27.5824 18.6364 26.7983C19.0682 26.0085 19.2841 25.0795 19.2841 24.0114L19.9318 24.1477H14.6818V22.2727H21.3295V24.1477C21.3295 25.5852 21.0227 26.8352 20.4091 27.8977C19.8011 28.9602 18.9602 29.7841 17.8864 30.3693C16.8182 30.9489 15.5909 31.2386 14.2045 31.2386C12.6591 31.2386 11.3011 30.875 10.1307 30.1477C8.96591 29.4205 8.05682 28.3864 7.40341 27.0455C6.75568 25.7045 6.43182 24.1136 6.43182 22.2727C6.43182 20.892 6.61648 19.6506 6.9858 18.5483C7.3608 17.4403 7.8892 16.4972 8.57102 15.7188C9.25284 14.9403 10.0597 14.3438 10.9915 13.929C11.9233 13.5142 12.9489 13.3068 14.0682 13.3068C14.9886 13.3068 15.8466 13.446 16.642 13.7244C17.4432 13.9972 18.1562 14.3864 18.7812 14.892C19.4119 15.392 19.9375 15.9915 20.358 16.6903C20.7784 17.3835 21.0682 18.1534 21.2273 19H19.0455ZM24.6768 31V17.9091H26.62V19.8864H26.7564C26.995 19.2386 27.4268 18.7131 28.0518 18.3097C28.6768 17.9062 29.3814 17.7045 30.1655 17.7045C30.3132 17.7045 30.4979 17.7074 30.7195 17.7131C30.9411 17.7187 31.1087 17.7273 31.2223 17.7386V19.7841C31.1541 19.767 30.9979 19.7415 30.7536 19.7074C30.5149 19.6676 30.2621 19.6477 29.995 19.6477C29.3587 19.6477 28.7905 19.7812 28.2905 20.0483C27.7962 20.3097 27.4041 20.6733 27.1143 21.1392C26.8303 21.5994 26.6882 22.125 26.6882 22.7159V31H24.6768ZM37.4588 31.3068C36.6293 31.3068 35.8764 31.1506 35.2003 30.8381C34.5241 30.5199 33.9872 30.0625 33.5895 29.4659C33.1918 28.8636 32.9929 28.1364 32.9929 27.2841C32.9929 26.5341 33.1406 25.9261 33.4361 25.4602C33.7315 24.9886 34.1264 24.6193 34.6207 24.3523C35.1151 24.0852 35.6605 23.8864 36.2571 23.7557C36.8594 23.6193 37.4645 23.5114 38.0724 23.4318C38.8679 23.3295 39.5128 23.2528 40.0071 23.2017C40.5071 23.1449 40.8707 23.0511 41.098 22.9205C41.331 22.7898 41.4474 22.5625 41.4474 22.2386V22.1705C41.4474 21.3295 41.2173 20.6761 40.7571 20.2102C40.3026 19.7443 39.6122 19.5114 38.6861 19.5114C37.7259 19.5114 36.973 19.7216 36.4276 20.142C35.8821 20.5625 35.4986 21.0114 35.277 21.4886L33.3679 20.8068C33.7088 20.0114 34.1634 19.392 34.7315 18.9489C35.3054 18.5 35.9304 18.1875 36.6065 18.0114C37.2884 17.8295 37.9588 17.7386 38.6179 17.7386C39.0384 17.7386 39.5213 17.7898 40.0668 17.892C40.6179 17.9886 41.1491 18.1903 41.6605 18.4972C42.1776 18.804 42.6065 19.267 42.9474 19.8864C43.2884 20.5057 43.4588 21.3352 43.4588 22.375V31H41.4474V29.2273H41.3452C41.2088 29.5114 40.9815 29.8153 40.6634 30.1392C40.3452 30.4631 39.9219 30.7386 39.3935 30.9659C38.8651 31.1932 38.2202 31.3068 37.4588 31.3068ZM37.7656 29.5C38.5611 29.5 39.2315 29.3438 39.777 29.0312C40.3281 28.7188 40.7429 28.3153 41.0213 27.821C41.3054 27.3267 41.4474 26.8068 41.4474 26.2614V24.4205C41.3622 24.5227 41.1747 24.6165 40.8849 24.7017C40.6009 24.7812 40.2713 24.8523 39.8963 24.9148C39.527 24.9716 39.1662 25.0227 38.8139 25.0682C38.4673 25.108 38.1861 25.142 37.9702 25.1705C37.4474 25.2386 36.9588 25.3494 36.5043 25.5028C36.0554 25.6506 35.6918 25.875 35.4134 26.1761C35.1406 26.4716 35.0043 26.875 35.0043 27.3864C35.0043 28.0852 35.2628 28.6136 35.7798 28.9716C36.3026 29.3239 36.9645 29.5 37.7656 29.5ZM47.4027 31V13.5455H49.4141V19.9886H49.5845C49.7322 19.7614 49.9368 19.4716 50.1982 19.1193C50.4652 18.7614 50.8459 18.4432 51.3402 18.1648C51.8402 17.8807 52.5163 17.7386 53.3686 17.7386C54.4709 17.7386 55.4425 18.0142 56.2834 18.5653C57.1243 19.1165 57.7805 19.8977 58.2521 20.9091C58.7237 21.9205 58.9595 23.1136 58.9595 24.4886C58.9595 25.875 58.7237 27.0767 58.2521 28.0938C57.7805 29.1051 57.1271 29.8892 56.2919 30.446C55.4567 30.9972 54.4936 31.2727 53.4027 31.2727C52.5618 31.2727 51.8885 31.1335 51.3828 30.8551C50.8771 30.571 50.4879 30.25 50.2152 29.892C49.9425 29.5284 49.7322 29.2273 49.5845 28.9886H49.3459V31H47.4027ZM49.38 24.4545C49.38 25.4432 49.5249 26.3153 49.8146 27.071C50.1044 27.821 50.5277 28.4091 51.0845 28.8352C51.6413 29.2557 52.3232 29.4659 53.13 29.4659C53.9709 29.4659 54.6726 29.2443 55.2351 28.8011C55.8033 28.3523 56.2294 27.75 56.5135 26.9943C56.8033 26.233 56.9482 25.3864 56.9482 24.4545C56.9482 23.5341 56.8061 22.7045 56.522 21.9659C56.2436 21.2216 55.8203 20.6335 55.2521 20.2017C54.6896 19.7642 53.9822 19.5455 53.13 19.5455C52.3118 19.5455 51.6243 19.7528 51.0675 20.1676C50.5107 20.5767 50.0902 21.1506 49.8061 21.8892C49.522 22.6222 49.38 23.4773 49.38 24.4545ZM67.5589 13.5455H69.9794L74.8203 21.6932H75.0249L79.8658 13.5455H82.2862L75.9794 23.8068V31H73.8658V23.8068L67.5589 13.5455ZM88.2138 31.2727C87.032 31.2727 85.995 30.9915 85.103 30.429C84.2166 29.8665 83.5234 29.0795 83.0234 28.0682C82.5291 27.0568 82.282 25.875 82.282 24.5227C82.282 23.1591 82.5291 21.9687 83.0234 20.9517C83.5234 19.9347 84.2166 19.1449 85.103 18.5824C85.995 18.0199 87.032 17.7386 88.2138 17.7386C89.3956 17.7386 90.4297 18.0199 91.3161 18.5824C92.2081 19.1449 92.9013 19.9347 93.3956 20.9517C93.8956 21.9687 94.1456 23.1591 94.1456 24.5227C94.1456 25.875 93.8956 27.0568 93.3956 28.0682C92.9013 29.0795 92.2081 29.8665 91.3161 30.429C90.4297 30.9915 89.3956 31.2727 88.2138 31.2727ZM88.2138 29.4659C89.1115 29.4659 89.8501 29.2358 90.4297 28.7756C91.0092 28.3153 91.4382 27.7102 91.7166 26.9602C91.995 26.2102 92.1342 25.3977 92.1342 24.5227C92.1342 23.6477 91.995 22.8324 91.7166 22.0767C91.4382 21.321 91.0092 20.7102 90.4297 20.2443C89.8501 19.7784 89.1115 19.5455 88.2138 19.5455C87.3161 19.5455 86.5774 19.7784 85.9979 20.2443C85.4183 20.7102 84.9893 21.321 84.7109 22.0767C84.4325 22.8324 84.2933 23.6477 84.2933 24.5227C84.2933 25.3977 84.4325 26.2102 84.7109 26.9602C84.9893 27.7102 85.4183 28.3153 85.9979 28.7756C86.5774 29.2358 87.3161 29.4659 88.2138 29.4659ZM105.466 25.6477V17.9091H107.477V31H105.466V28.7841H105.33C105.023 29.4489 104.545 30.0142 103.898 30.4801C103.25 30.9403 102.432 31.1705 101.443 31.1705C100.625 31.1705 99.8977 30.9915 99.2614 30.6335C98.625 30.2699 98.125 29.7244 97.7614 28.9972C97.3977 28.2642 97.2159 27.3409 97.2159 26.2273V17.9091H99.2273V26.0909C99.2273 27.0455 99.4943 27.8068 100.028 28.375C100.568 28.9432 101.256 29.2273 102.091 29.2273C102.591 29.2273 103.099 29.0994 103.616 28.8438C104.139 28.5881 104.577 28.196 104.929 27.6676C105.287 27.1392 105.466 26.4659 105.466 25.6477ZM111.161 31V17.9091H113.104V19.8864H113.241C113.479 19.2386 113.911 18.7131 114.536 18.3097C115.161 17.9062 115.866 17.7045 116.65 17.7045C116.798 17.7045 116.982 17.7074 117.204 17.7131C117.425 17.7187 117.593 17.7273 117.707 17.7386V19.7841C117.638 19.767 117.482 19.7415 117.238 19.7074C116.999 19.6676 116.746 19.6477 116.479 19.6477C115.843 19.6477 115.275 19.7812 114.775 20.0483C114.281 20.3097 113.888 20.6733 113.599 21.1392C113.315 21.5994 113.173 22.125 113.173 22.7159V31H111.161Z" fill="black"/>
<path d="M146.938 22.5C146.938 17.2188 154.406 12.9375 159.688 12.9375V9.75C152.646 9.75 146.938 15.4584 146.938 22.5Z" fill="black"/>
<path d="M170.263 6.5625H176.688C179.622 6.5625 182 8.94099 182 11.875V33.125C182 36.059 179.622 38.4375 176.688 38.4375H170.263C167.234 40.4515 163.598 41.625 159.688 41.625C155.777 41.625 152.141 40.4515 149.112 38.4375H136.313C133.378 38.4375 131 36.059 131 33.125V11.875C131 8.94099 133.378 6.5625 136.313 6.5625H137.375C137.375 4.80209 138.802 3.375 140.562 3.375H143.75C145.51 3.375 146.938 4.80209 146.938 6.5625H149.112C152.141 4.54849 155.777 3.375 159.688 3.375C163.598 3.375 167.234 4.54849 170.263 6.5625ZM137.375 11.3438C137.375 10.4635 136.661 9.75 135.781 9.75C134.901 9.75 134.188 10.4635 134.188 11.3438C134.188 12.224 134.901 12.9375 135.781 12.9375C136.661 12.9375 137.375 12.224 137.375 11.3438ZM175.625 22.5C175.625 13.698 168.49 6.5625 159.688 6.5625C150.885 6.5625 143.75 13.698 143.75 22.5C143.75 31.302 150.885 38.4375 159.688 38.4375C168.49 38.4375 175.625 31.302 175.625 22.5Z" fill="black"/>
</g>
<defs>
<clipPath id="clip0_229_30">
<rect width="187" height="45" fill="white"/>
</clipPath>
</defs>
</svg>
