<svg width="272" height="67" viewBox="0 0 272 67" fill="none" xmlns="http://www.w3.org/2000/svg">
<path d="M22.3979 10.0498C22.0649 9.03683 21.626 8.12913 21.0812 7.32675C20.5465 6.51434 19.9058 5.82228 19.1592 5.25059C18.4227 4.67889 17.5853 4.24259 16.647 3.9417C15.7088 3.64081 14.6797 3.49036 13.5598 3.49036C11.7236 3.49036 10.0538 3.96176 8.55053 4.90456C7.04725 5.84736 5.85169 7.23648 4.96385 9.07193C4.076 10.9074 3.63208 13.1591 3.63208 15.827C3.63208 18.4949 4.08105 20.7466 4.97898 22.582C5.87691 24.4175 7.09265 25.8066 8.6262 26.7494C10.1597 27.6922 11.885 28.1636 13.8019 28.1636C15.5776 28.1636 17.1414 27.7875 18.4934 27.0353C19.8554 26.273 20.9147 25.1998 21.6714 23.8157C22.4382 22.4216 22.8216 20.7817 22.8216 18.8961L23.9718 19.1368H14.6494V15.827H26.4537V19.1368C26.4537 21.6743 25.9089 23.8809 24.8192 25.7565C23.7397 27.632 22.2465 29.0863 20.3397 30.1194C18.4429 31.1424 16.2637 31.654 13.8019 31.654C11.0577 31.654 8.64638 31.0121 6.56802 29.7282C4.49975 28.4444 2.88549 26.619 1.72524 24.252C0.57508 21.885 0 19.0766 0 15.827C0 13.3897 0.327896 11.1982 0.983689 9.25246C1.64957 7.29666 2.58786 5.63172 3.79855 4.25764C5.00925 2.88356 6.4419 1.83043 8.09652 1.09826C9.75113 0.366087 11.5722 0 13.5598 0C15.1942 0 16.7177 0.245729 18.1301 0.737188C19.5527 1.21862 20.8189 1.90566 21.9287 2.79831C23.0486 3.68093 23.9818 4.73907 24.7284 5.97273C25.475 7.19636 25.9896 8.5554 26.2721 10.0498H22.3979Z" fill="black"/>
<path d="M32.3974 31.2327V8.12412H35.8479V11.6145H36.09C36.5138 10.4711 37.2806 9.54333 38.3904 8.83121C39.5002 8.1191 40.7512 7.76304 42.1435 7.76304C42.4058 7.76304 42.7337 7.76806 43.1272 7.77809C43.5207 7.78812 43.8183 7.80316 44.0201 7.82322V11.4339C43.899 11.4039 43.6216 11.3587 43.1877 11.2985C42.764 11.2283 42.315 11.1932 41.8408 11.1932C40.7109 11.1932 39.702 11.4289 38.8141 11.9003C37.9364 12.3617 37.2402 13.0036 36.7257 13.826C36.2212 14.6385 35.969 15.5662 35.969 16.6093V31.2327H32.3974Z" fill="black"/>
<path d="M55.0942 31.7743C53.6212 31.7743 52.2843 31.4985 51.0837 30.9469C49.8831 30.3852 48.9297 29.5778 48.2235 28.5247C47.5172 27.4615 47.1641 26.1777 47.1641 24.6732C47.1641 23.3493 47.4264 22.2761 47.9511 21.4537C48.4757 20.6212 49.1769 19.9693 50.0546 19.4979C50.9324 19.0265 51.901 18.6754 52.9603 18.4448C54.0298 18.204 55.1043 18.0135 56.1838 17.8731C57.5963 17.6925 58.7414 17.5571 59.6191 17.4668C60.507 17.3666 61.1527 17.2011 61.5562 16.9704C61.9699 16.7397 62.1767 16.3385 62.1767 15.7668V15.6464C62.1767 14.162 61.7681 13.0086 60.9509 12.1862C60.1438 11.3637 58.9179 10.9525 57.2734 10.9525C55.5684 10.9525 54.2315 11.3236 53.263 12.0658C52.2944 12.808 51.6134 13.6004 51.2199 14.4429L47.83 13.2393C48.4353 11.8351 49.2425 10.7419 50.2514 9.95956C51.2704 9.16721 52.3802 8.61557 53.5808 8.30465C54.7915 7.9837 55.982 7.82322 57.1523 7.82322C57.8989 7.82322 58.7565 7.91349 59.7251 8.09403C60.7037 8.26453 61.647 8.62059 62.5551 9.1622C63.4732 9.7038 64.2349 10.5212 64.8403 11.6145C65.4456 12.7077 65.7483 14.1721 65.7483 16.0075V31.2327H62.1767V28.1034H61.9951C61.753 28.6049 61.3494 29.1415 60.7844 29.7132C60.2194 30.2849 59.4678 30.7713 58.5295 31.1725C57.5912 31.5737 56.4461 31.7743 55.0942 31.7743ZM55.639 28.5849C57.0515 28.5849 58.242 28.309 59.2105 27.7574C60.1892 27.2058 60.9257 26.4936 61.42 25.6211C61.9245 24.7485 62.1767 23.8307 62.1767 22.8679V19.6182C62.0254 19.7988 61.6924 19.9643 61.1779 20.1147C60.6734 20.2551 60.0883 20.3805 59.4224 20.4908C58.7666 20.5911 58.1259 20.6814 57.5004 20.7616C56.885 20.8318 56.3856 20.892 56.0022 20.9422C55.074 21.0625 54.2063 21.2581 53.3992 21.5289C52.6021 21.7897 51.9564 22.1859 51.4621 22.7174C50.9778 23.239 50.7357 23.9511 50.7357 24.8538C50.7357 26.0874 51.1947 27.0202 52.1128 27.6521C53.041 28.2739 54.2164 28.5849 55.639 28.5849Z" fill="black"/>
<path d="M72.7514 31.2327V0.421251H76.3229V11.795H76.6256C76.8879 11.3938 77.2511 10.8823 77.7152 10.2605C78.1894 9.62858 78.8654 9.06692 79.7431 8.57546C80.631 8.07397 81.8316 7.82322 83.345 7.82322C85.3022 7.82322 87.0275 8.30967 88.5207 9.28255C90.0139 10.2554 91.1792 11.6345 92.0166 13.4198C92.854 15.2051 93.2727 17.3114 93.2727 19.7386C93.2727 22.1859 92.854 24.3072 92.0166 26.1025C91.1792 27.8878 90.0189 29.2719 88.5358 30.2548C87.0527 31.2277 85.3426 31.7141 83.4055 31.7141C81.9123 31.7141 80.7167 31.4684 79.8188 30.977C78.9209 30.4755 78.2298 29.9088 77.7455 29.2769C77.2612 28.635 76.8879 28.1034 76.6256 27.6822H76.2019V31.2327H72.7514ZM76.2624 19.6784C76.2624 21.4236 76.5197 22.9632 77.0342 24.2971C77.5488 25.6211 78.3004 26.6591 79.2891 27.4114C80.2779 28.1536 81.4886 28.5247 82.9212 28.5247C84.4144 28.5247 85.6604 28.1335 86.6592 27.3512C87.6681 26.5588 88.4248 25.4957 88.9293 24.1617C89.4438 22.8177 89.7011 21.3233 89.7011 19.6784C89.7011 18.0536 89.4489 16.5892 88.9444 15.2854C88.4501 13.9715 87.6984 12.9334 86.6895 12.1711C85.6907 11.3988 84.4346 11.0127 82.9212 11.0127C81.4684 11.0127 80.2476 11.3788 79.2589 12.111C78.2701 12.8331 77.5235 13.8461 77.0191 15.15C76.5146 16.4438 76.2624 17.9533 76.2624 19.6784Z" fill="black"/>
<path d="M108.543 0.421251H112.84L121.436 14.8039H121.8L130.396 0.421251H134.694L123.495 18.535V31.2327H119.741V18.535L108.543 0.421251Z" fill="black"/>
<path d="M145.219 31.7141C143.12 31.7141 141.279 31.2177 139.695 30.2247C138.121 29.2318 136.89 27.8426 136.003 26.0574C135.125 24.2721 134.686 22.1859 134.686 19.7988C134.686 17.3916 135.125 15.2904 136.003 13.4951C136.89 11.6997 138.121 10.3056 139.695 9.31264C141.279 8.3197 143.12 7.82322 145.219 7.82322C147.318 7.82322 149.154 8.3197 150.728 9.31264C152.312 10.3056 153.543 11.6997 154.42 13.4951C155.308 15.2904 155.752 17.3916 155.752 19.7988C155.752 22.1859 155.308 24.2721 154.42 26.0574C153.543 27.8426 152.312 29.2318 150.728 30.2247C149.154 31.2177 147.318 31.7141 145.219 31.7141ZM145.219 28.5247C146.813 28.5247 148.125 28.1185 149.154 27.3061C150.183 26.4936 150.945 25.4255 151.439 24.1015C151.933 22.7776 152.181 21.3434 152.181 19.7988C152.181 18.2542 151.933 16.8149 151.439 15.481C150.945 14.147 150.183 13.0688 149.154 12.2464C148.125 11.4239 146.813 11.0127 145.219 11.0127C143.625 11.0127 142.313 11.4239 141.284 12.2464C140.255 13.0688 139.493 14.147 138.999 15.481C138.505 16.8149 138.258 18.2542 138.258 19.7988C138.258 21.3434 138.505 22.7776 138.999 24.1015C139.493 25.4255 140.255 26.4936 141.284 27.3061C142.313 28.1185 143.625 28.5247 145.219 28.5247Z" fill="black"/>
<path d="M175.853 21.7847V8.12412H179.425V31.2327H175.853V27.3211H175.611C175.066 28.4946 174.219 29.4925 173.069 30.315C171.919 31.1274 170.466 31.5336 168.71 31.5336C167.257 31.5336 165.966 31.2177 164.836 30.5858C163.706 29.9439 162.818 28.981 162.173 27.6972C161.527 26.4034 161.204 24.7735 161.204 22.8077V8.12412H164.776V22.567C164.776 24.252 165.25 25.596 166.198 26.599C167.157 27.6019 168.377 28.1034 169.86 28.1034C170.748 28.1034 171.651 27.8778 172.569 27.4264C173.498 26.9751 174.274 26.283 174.9 25.3503C175.536 24.4175 175.853 23.229 175.853 21.7847Z" fill="black"/>
<path d="M185.966 31.2327V8.12412H189.417V11.6145H189.659C190.083 10.4711 190.85 9.54333 191.959 8.83121C193.069 8.1191 194.32 7.76304 195.713 7.76304C195.975 7.76304 196.303 7.76806 196.696 7.77809C197.09 7.78812 197.387 7.80316 197.589 7.82322V11.4339C197.468 11.4039 197.191 11.3587 196.757 11.2985C196.333 11.2283 195.884 11.1932 195.41 11.1932C194.28 11.1932 193.271 11.4289 192.383 11.9003C191.505 12.3617 190.809 13.0036 190.295 13.826C189.79 14.6385 189.538 15.5662 189.538 16.6093V31.2327H185.966Z" fill="black"/>
<path d="M32.1686 54.9258C32.6374 54.9258 33.0849 55.1164 33.5111 55.4977C33.9372 55.879 34.1503 56.4933 34.1503 57.3406C34.1503 58.0185 33.6389 58.8234 32.6161 59.7555C31.5933 60.6451 30.2722 61.5136 28.6528 62.361C27.076 63.2083 25.3713 63.9073 23.5388 64.4581C21.7063 65.0512 19.9803 65.3477 18.3609 65.3477C16.0596 65.3477 13.8862 64.7546 11.8406 63.5684C9.83762 62.3821 8.19689 60.6663 6.91839 58.4209C5.6399 56.1332 5.00065 53.3582 5.00065 50.0961C5.00065 47.2152 5.53336 44.3343 6.59877 41.4534C7.66418 38.5726 9.07052 35.7976 10.8178 33.1286C12.6077 30.4595 14.568 27.9811 16.6989 25.6934C18.8723 23.4056 21.0457 21.4144 23.2192 19.7198C25.3926 18.0252 27.4169 16.7118 29.292 15.7798C31.2098 14.8054 32.7866 14.3182 34.0224 14.3182C34.8748 14.3182 35.5566 14.6359 36.068 15.2714C36.6221 15.8645 36.8991 16.5212 36.8991 17.2414C36.8991 17.6651 36.7712 18.0887 36.5155 18.5124C36.3024 18.936 35.9189 19.275 35.3649 19.5292C32.5948 20.8849 29.7821 22.6219 26.9268 24.7402C24.0715 26.8584 21.4293 29.2733 19.0002 31.9847C16.571 34.6537 14.6107 37.5558 13.1191 40.6909C11.6275 43.7836 10.8817 47.0457 10.8817 50.4774C10.8817 53.443 11.5849 55.7095 12.9912 57.2771C14.3976 58.8022 16.3153 59.5648 18.7445 59.5648C20.0229 59.5648 21.3441 59.3318 22.7078 58.8658C24.1141 58.3998 25.4352 57.8702 26.6711 57.2771C27.9496 56.6416 29.0576 56.0908 29.9952 55.6248C30.9754 55.1588 31.6999 54.9258 32.1686 54.9258Z" fill="#E02E2E"/>
<path d="M50.0431 65.9832C48.4236 65.9832 47.0812 65.2418 46.0158 63.759C44.993 62.2339 44.4816 60.2638 44.4816 57.849C44.4816 55.6036 45.0356 53.3794 46.1437 51.1764C47.2943 48.9734 48.8072 46.8551 50.6823 44.8215C52.5574 42.788 54.603 40.9239 56.8191 39.2292C59.0351 37.4922 61.2512 35.9883 63.4673 34.7173C65.7259 33.4463 67.7928 32.4507 69.6679 31.7305C71.5431 31.0103 73.0346 30.6502 74.1427 30.6502C74.7393 30.6502 75.2294 30.7773 75.6129 31.0315C75.9965 31.2433 76.1883 31.6458 76.1883 32.2389C76.1883 32.6202 76.0391 32.9803 75.7408 33.3192C75.7834 33.3192 75.826 33.3192 75.8686 33.3192C76.8062 33.3192 77.275 33.87 77.275 34.9715C77.275 35.3528 77.1258 36.1365 76.8275 37.3228C76.5292 38.4667 76.1883 39.9071 75.8047 41.6441C75.4212 43.3811 75.0802 45.3087 74.7819 47.427C74.4836 49.5029 74.3344 51.6212 74.3344 53.7819C74.3344 55.6036 75.0376 56.5145 76.444 56.5145C78.0208 56.5145 79.6189 56.1544 81.2383 55.4342C82.8577 54.7139 84.4345 53.8454 85.9687 52.8287C87.5029 51.7695 88.9093 50.7316 90.1878 49.7148C91.4663 48.6556 92.553 47.7659 93.4479 47.0457C94.3429 46.3255 94.9821 45.9654 95.3657 45.9654C95.7066 45.9654 96.0049 46.0713 96.2606 46.2831C96.5163 46.495 96.6441 46.8339 96.6441 47.2999C96.6441 47.7236 96.218 48.4862 95.3657 49.5877C94.5133 50.6892 93.384 51.939 91.9777 53.337C90.5713 54.7351 88.9945 56.0908 87.2472 57.4042C85.5 58.7175 83.7101 59.7978 81.8776 60.6451C80.045 61.4925 78.2978 61.9161 76.6357 61.9161C75.3572 61.9161 74.1853 61.5348 73.1199 60.7722C72.0971 59.9673 71.2661 58.6116 70.6268 56.7051C70.0302 54.7987 69.7319 52.172 69.7319 48.8251V47.2364C67.6437 50.668 65.4489 53.8031 63.1476 56.6416C60.889 59.4801 58.6303 61.7467 56.3716 63.4413C54.1556 65.1359 52.046 65.9832 50.0431 65.9832ZM72.9281 35.2257C72.715 35.3104 72.4167 35.4375 72.0332 35.607C70.0728 36.4967 68.0272 37.5982 65.8964 38.9115C63.8082 40.2248 61.7626 41.6865 59.7596 43.2964C57.7993 44.9063 56.0307 46.5797 54.4539 48.3167C52.8771 50.0537 51.6199 51.8119 50.6823 53.5912C49.7448 55.3706 49.276 57.1076 49.276 58.8022C49.276 59.353 49.3825 59.7766 49.5956 60.0732C49.8513 60.3698 50.2775 60.518 50.8741 60.518C51.7264 60.518 52.8344 59.9885 54.1982 58.9293C55.5619 57.8278 57.0535 56.3874 58.6729 54.608C60.3349 52.8287 61.997 50.8586 63.659 48.698C65.3211 46.5373 66.8979 44.3555 68.3895 42.1525C69.9236 39.9495 71.2448 37.9159 72.3528 36.0518C72.5232 35.7553 72.715 35.4799 72.9281 35.2257Z" fill="#E02E2E"/>
<path d="M142.401 62.4245C142.359 63.1024 142.082 63.6531 141.57 64.0768C141.059 64.5004 140.462 64.7122 139.78 64.7122C139.013 64.7122 138.374 64.4581 137.863 63.9497C137.351 63.4413 137.095 62.6575 137.095 61.5984C137.095 58.8446 137.223 55.8578 137.479 52.638C137.735 49.3758 138.054 46.156 138.438 42.9786C138.821 39.7588 139.205 36.7932 139.589 34.0818C138.182 36.073 136.648 38.276 134.986 40.6909C133.367 43.1057 131.704 45.4994 130 47.8719C128.295 50.2443 126.633 52.4262 125.014 54.4174C123.394 56.3662 121.924 57.9549 120.603 59.1835C119.282 60.3698 118.195 60.9629 117.343 60.9629C115.766 60.9629 114.402 60.3486 113.252 59.12C112.101 57.849 111.526 56.2603 111.526 54.3538C111.526 53.5912 111.611 52.5533 111.781 51.2399C111.952 49.8842 112.144 48.465 112.357 46.9822C112.57 45.4994 112.761 44.1225 112.932 42.8515C113.102 41.5382 113.188 40.5638 113.188 39.9283C113.188 39.3352 113.124 38.8268 112.996 38.4031C112.911 37.9371 112.698 37.7041 112.357 37.7041C111.845 37.7041 111.142 38.276 110.247 39.4199C109.352 40.5214 108.351 41.9407 107.243 43.6777C106.177 45.4146 105.069 47.2576 103.919 49.2064C102.811 51.1552 101.766 52.9981 100.786 54.7351C99.8061 56.4297 98.9751 57.7643 98.2932 58.7387C97.7392 59.6707 97.2278 60.3486 96.759 60.7722C96.2902 61.1959 95.7149 61.4077 95.0331 61.4077C94.2233 61.4077 93.4776 60.9841 92.7957 60.1367C92.1564 59.2894 91.8368 58.2515 91.8368 57.0229C91.8368 56.3027 91.9647 55.18 92.2204 53.6548C92.4761 52.0873 92.7957 50.3714 93.1792 48.5073C93.6054 46.6433 94.0103 44.8215 94.3938 43.0422C94.82 41.2204 95.1822 39.6741 95.4805 38.4031C95.8215 36.9627 96.2476 35.9883 96.759 35.4799C97.2704 34.9715 97.8244 34.7173 98.4211 34.7173C99.2308 34.7173 99.87 35.0139 100.339 35.607C100.85 36.1577 101.106 37.0262 101.106 38.2125C101.106 38.4243 100.978 38.9962 100.722 39.9283C100.467 40.818 100.147 41.9195 99.7635 43.2328C99.4225 44.5038 99.039 45.8383 98.6128 47.2364C98.2293 48.6344 97.9097 49.9266 97.654 51.1128C98.5915 49.5453 99.5717 47.8507 100.594 46.029C101.66 44.2072 102.725 42.4067 103.791 40.6273C104.856 38.8056 105.922 37.1533 106.987 35.6705C108.052 34.1454 109.096 32.9379 110.119 32.0483C111.142 31.1586 112.122 30.7137 113.06 30.7137C114.168 30.7137 115.191 31.0527 116.128 31.7305C117.108 32.4084 117.897 33.3192 118.493 34.4631C119.09 35.607 119.388 36.8779 119.388 38.276C119.388 39.2504 119.218 40.6273 118.877 42.4067C118.536 44.1437 118.174 46.0289 117.79 48.0625C117.449 50.0961 117.236 52.0237 117.151 53.8454C117.151 54.2691 117.279 54.4809 117.535 54.4809C117.748 54.4809 118.003 54.3326 118.302 54.0361C119.538 52.6804 120.901 51.0493 122.393 49.1428C123.884 47.194 125.397 45.1393 126.931 42.9786C128.508 40.818 130.064 38.6997 131.598 36.6238C133.132 34.5055 134.56 32.599 135.881 30.9044C137.245 29.1674 138.438 27.7905 139.461 26.7737C140.526 25.7569 141.357 25.2485 141.954 25.2485C143.232 25.2485 144.212 25.6087 144.894 26.3289C145.576 27.0491 145.917 28.2565 145.917 29.9511C145.917 31.3069 145.811 33.065 145.597 35.2257C145.427 37.3863 145.193 39.7376 144.894 42.2796C144.639 44.8215 144.34 47.3847 143.999 49.969C143.701 52.5109 143.403 54.8834 143.104 57.0864C142.806 59.2471 142.572 61.0264 142.401 62.4245Z" fill="#E02E2E"/>
<path d="M180.418 35.9247C180.418 38.6361 179.119 41.2628 176.519 43.8047C173.919 46.3467 169.956 48.6768 164.629 50.7951C164.459 51.8542 164.373 52.7439 164.373 53.4641C164.373 55.1588 164.586 56.3874 165.013 57.15C165.481 57.9125 166.248 58.2938 167.314 58.2938C168.891 58.2938 170.659 57.8066 172.62 56.8322C174.58 55.8154 176.604 54.5233 178.692 52.9558C180.781 51.3459 182.826 49.6512 184.829 47.8719C186.875 46.0925 188.75 44.4191 190.455 42.8515C192.159 41.2416 193.608 39.9495 194.801 38.9751C195.995 37.9583 196.804 37.4499 197.231 37.4499C197.827 37.4499 198.317 37.7253 198.701 38.276C199.084 38.7844 199.276 39.4834 199.276 40.3731C199.276 41.4746 199.212 42.7456 199.084 44.186C198.957 45.5841 198.807 47.0669 198.637 48.6344C199.745 45.5417 201.13 42.8515 202.792 40.5638C204.497 38.2337 206.308 36.306 208.226 34.7808C210.143 33.2557 212.019 32.1118 213.851 31.3492C215.684 30.5866 217.26 30.2053 218.581 30.2053C219.817 30.2053 220.734 30.4384 221.33 30.9044C221.927 31.3704 222.225 31.9212 222.225 32.5566C222.225 33.1498 221.948 33.7005 221.394 34.2089C220.883 34.6749 219.689 35.2892 217.814 36.0518C215.641 36.8991 213.595 37.8947 211.678 39.0386C209.802 40.1825 208.055 41.75 206.436 43.7412C204.816 45.69 203.367 48.2955 202.089 51.5577C200.81 54.8198 199.724 59.0141 198.829 64.1403C198.658 65.1571 198.36 65.8773 197.934 66.301C197.508 66.767 196.996 67 196.4 67C195.973 67 195.547 66.8094 195.121 66.4281C194.695 66.0891 194.354 65.263 194.098 63.9497C193.843 62.594 193.715 60.4757 193.715 57.5948C193.715 55.646 193.8 53.5277 193.97 51.2399C194.184 48.9522 194.482 46.5585 194.865 44.0589C192.905 46.1772 190.732 48.4014 188.345 50.7315C185.959 53.0193 183.487 55.1588 180.93 57.15C178.373 59.0988 175.858 60.6875 173.387 61.9161C170.915 63.1447 168.614 63.759 166.483 63.759C164.224 63.759 162.413 62.9753 161.049 61.4077C159.686 59.8402 159.004 57.5101 159.004 54.4174C159.004 50.8586 159.472 47.5965 160.41 44.6309C161.348 41.6653 162.562 39.1021 164.054 36.9415C165.545 34.7385 167.143 33.0438 168.848 31.8576C170.553 30.6714 172.193 30.0782 173.77 30.0782C175.901 30.0782 177.542 30.629 178.692 31.7305C179.843 32.7896 180.418 34.1877 180.418 35.9247ZM165.652 46.156C166.93 45.2664 168.315 44.2708 169.807 43.1693C171.341 42.0678 172.641 40.9451 173.706 39.8012C174.814 38.6149 175.368 37.5346 175.368 36.5602C175.368 35.9671 175.219 35.5434 174.921 35.2892C174.623 35.035 174.111 34.9079 173.387 34.9079C172.236 34.9079 171.171 35.4799 170.19 36.6238C169.21 37.7253 168.337 39.1445 167.57 40.8815C166.802 42.5761 166.163 44.3343 165.652 46.156Z" fill="#E02E2E"/>
<path d="M225.399 65.9832C223.779 65.9832 222.437 65.2418 221.372 63.759C220.349 62.2339 219.837 60.2638 219.837 57.849C219.837 55.6036 220.391 53.3794 221.499 51.1764C222.65 48.9734 224.163 46.8551 226.038 44.8215C227.913 42.788 229.959 40.9239 232.175 39.2292C234.391 37.4922 236.607 35.9883 238.823 34.7173C241.082 33.4463 243.149 32.4507 245.024 31.7305C246.899 31.0103 248.39 30.6502 249.499 30.6502C250.095 30.6502 250.585 30.7773 250.969 31.0315C251.352 31.2433 251.544 31.6458 251.544 32.2389C251.544 32.6202 251.395 32.9803 251.097 33.3192C251.139 33.3192 251.182 33.3192 251.224 33.3192C252.162 33.3192 252.631 33.87 252.631 34.9715C252.631 35.3528 252.482 36.1365 252.183 37.3228C251.885 38.4667 251.544 39.9071 251.161 41.6441C250.777 43.3811 250.436 45.3087 250.138 47.427C249.839 49.5029 249.69 51.6212 249.69 53.7819C249.69 55.6036 250.393 56.5145 251.8 56.5145C253.377 56.5145 254.975 56.1544 256.594 55.4342C258.214 54.7139 259.79 53.8454 261.325 52.8287C262.859 51.7695 264.265 50.7316 265.544 49.7148C266.822 48.6556 267.909 47.7659 268.804 47.0457C269.699 46.3255 270.338 45.9654 270.721 45.9654C271.062 45.9654 271.361 46.0713 271.616 46.2831C271.872 46.495 272 46.8339 272 47.2999C272 47.7236 271.574 48.4862 270.721 49.5877C269.869 50.6892 268.74 51.939 267.333 53.337C265.927 54.7351 264.35 56.0908 262.603 57.4042C260.856 58.7175 259.066 59.7978 257.233 60.6451C255.401 61.4925 253.654 61.9161 251.992 61.9161C250.713 61.9161 249.541 61.5348 248.476 60.7722C247.453 59.9673 246.622 58.6116 245.983 56.7051C245.386 54.7987 245.088 52.172 245.088 48.8251V47.2364C243 50.668 240.805 53.8031 238.503 56.6416C236.245 59.4801 233.986 61.7467 231.727 63.4413C229.511 65.1359 227.402 65.9832 225.399 65.9832ZM248.284 35.2257C248.071 35.3104 247.773 35.4375 247.389 35.607C245.429 36.4967 243.383 37.5982 241.252 38.9115C239.164 40.2248 237.118 41.6865 235.115 43.2964C233.155 44.9063 231.387 46.5797 229.81 48.3167C228.233 50.0537 226.976 51.8119 226.038 53.5912C225.101 55.3706 224.632 57.1076 224.632 58.8022C224.632 59.353 224.738 59.7766 224.951 60.0732C225.207 60.3698 225.633 60.518 226.23 60.518C227.082 60.518 228.19 59.9885 229.554 58.9293C230.918 57.8278 232.409 56.3874 234.029 54.608C235.691 52.8287 237.353 50.8586 239.015 48.698C240.677 46.5373 242.254 44.3555 243.745 42.1525C245.279 39.9495 246.601 37.9159 247.709 36.0518C247.879 35.7553 248.071 35.4799 248.284 35.2257Z" fill="#E02E2E"/>
</svg>
