<svg width="51" height="51" viewBox="0 0 51 51" fill="none" xmlns="http://www.w3.org/2000/svg">
<path d="M15.9375 25.5C15.9375 20.2188 23.4063 15.9375 28.6875 15.9375V12.75C21.6459 12.75 15.9375 18.4584 15.9375 25.5Z" fill="black"/>
<path d="M39.263 9.5625H45.6875C48.6215 9.5625 51 11.941 51 14.875V36.125C51 39.059 48.6215 41.4375 45.6875 41.4375H39.263C36.2339 43.4515 32.5977 44.625 28.6875 44.625C24.7773 44.625 21.1411 43.4515 18.112 41.4375H5.3125C2.37849 41.4375 0 39.059 0 36.125V14.875C0 11.941 2.37849 9.5625 5.3125 9.5625H6.375C6.375 7.80209 7.80209 6.375 9.5625 6.375H12.75C14.5104 6.375 15.9375 7.80209 15.9375 9.5625H18.112C21.1411 7.54849 24.7773 6.375 28.6875 6.375C32.5977 6.375 36.2339 7.54849 39.263 9.5625ZM6.375 14.3438C6.375 13.4635 5.66145 12.75 4.78125 12.75C3.90105 12.75 3.1875 13.4635 3.1875 14.3438C3.1875 15.224 3.90105 15.9375 4.78125 15.9375C5.66145 15.9375 6.375 15.224 6.375 14.3438ZM44.625 25.5C44.625 16.698 37.4895 9.5625 28.6875 9.5625C19.8855 9.5625 12.75 16.698 12.75 25.5C12.75 34.302 19.8855 41.4375 28.6875 41.4375C37.4895 41.4375 44.625 34.302 44.625 25.5Z" fill="black"/>
</svg>
